<svg width="654" height="638" viewBox="0 0 654 638" fill="none" xmlns="http://www.w3.org/2000/svg">
<g opacity="0.98">
<path d="M69.6713 238.509L42.2133 222.857C41.843 206.11 45.5172 189.525 52.9171 174.542C59.2477 203.623 92.5632 217.458 107.935 242.849C112.669 250.806 115.573 259.738 116.433 268.985C117.292 278.232 116.085 287.556 112.9 296.267L114.706 318.814C100.515 314.512 87.4138 307.147 76.3056 297.228C65.1973 287.308 56.346 275.068 50.3614 261.353C47.0794 253.625 44.772 245.509 43.4936 237.198C56.2957 238.577 69.6713 238.509 69.6713 238.509Z" fill="#F2F2F2"/>
<path d="M563.273 523.271L564.115 504.111C572.892 499.362 582.682 496.854 592.634 496.804C578.937 508.138 580.649 529.986 571.362 545.227C568.43 549.959 564.483 553.961 559.815 556.939C555.146 559.917 549.875 561.793 544.393 562.429L532.93 569.531C531.358 560.657 531.704 551.543 533.947 542.818C536.189 534.092 540.274 525.962 545.92 518.988C549.125 515.107 552.801 511.651 556.86 508.7C559.605 516.026 563.273 523.271 563.273 523.271Z" fill="#F2F2F2"/>
<path d="M533.739 559.671L523.36 559.67L518.422 519.153L533.741 519.153L533.739 559.671Z" fill="#FFB6B6"/>
<path d="M536.386 569.854L502.92 569.852V569.424C502.92 565.928 504.292 562.575 506.735 560.102C509.178 557.63 512.491 556.241 515.946 556.241H515.946L522.059 551.547L533.465 556.241L536.386 556.241L536.386 569.854Z" fill="#2F2E41"/>
<path d="M485.519 559.671L475.141 559.67L470.203 519.153L485.522 519.153L485.519 559.671Z" fill="#FFB6B6"/>
<path d="M488.167 569.854L454.7 569.852V569.424C454.701 565.928 456.073 562.575 458.516 560.102C460.959 557.63 464.272 556.241 467.726 556.241H467.727L473.84 551.547L485.246 556.241L488.167 556.241L488.167 569.854Z" fill="#2F2E41"/>
<path d="M481.027 338.157L548.537 339.865C561.358 346.914 561.553 362.169 557.352 380.281C557.352 380.281 558.77 391.046 555.934 393.917C553.097 396.788 551.679 396.788 553.097 401.811C554.516 406.835 547.023 415.04 547.933 415.962C548.843 416.883 550.97 421.907 550.97 421.907L543.879 462.814C543.879 462.814 538.915 533.865 537.497 535.301C536.079 536.736 534.661 535.301 536.079 538.889C537.497 542.477 538.915 541.042 537.497 542.477C536.241 543.848 535.057 545.286 533.952 546.784H516.808C516.808 546.784 515.515 539.607 515.515 538.889C515.515 538.171 514.097 533.865 514.097 533.148C514.097 532.43 515.35 531.161 515.35 531.161C515.783 529.702 516.076 528.204 516.224 526.688C516.224 525.253 520.479 469.991 520.479 469.991L511.969 398.223L491.405 468.556C491.405 468.556 491.405 530.277 489.987 531.712C488.569 533.147 488.569 532.43 489.278 535.301C489.987 538.171 492.824 537.454 490.696 539.607C488.569 541.76 487.86 538.171 488.569 541.76L489.278 545.348L468.005 545.656C468.005 545.656 465.169 539.607 466.587 537.454C468.005 535.301 467.92 535.888 466.19 532.365C464.459 528.841 463.75 528.124 464.459 527.406C465.169 526.688 465.169 522.871 465.169 522.871L468.714 454.202C468.714 454.202 469.423 381.716 469.423 379.563C469.477 378.455 469.275 377.35 468.834 376.334V373.412L471.551 363.056L481.027 338.157Z" fill="#2F2E41"/>
<path d="M521.581 196.083C533.166 196.083 542.557 186.578 542.557 174.853C542.557 163.129 533.166 153.624 521.581 153.624C509.997 153.624 500.606 163.129 500.606 174.853C500.606 186.578 509.997 196.083 521.581 196.083Z" fill="#FFB6B6"/>
<path d="M511.093 210.114C506.574 212.833 503.871 217.829 502.319 222.913C499.447 232.324 497.717 242.056 497.17 251.891L495.531 281.335L475.232 344.032C492.824 359.098 558.952 347.456 558.952 347.456C558.952 347.456 560.982 346.771 558.952 344.716C556.922 342.662 554.946 344.482 556.976 342.428C559.005 340.373 557.606 342.662 556.93 340.607C556.253 338.553 556.93 339.923 557.606 339.238C558.283 338.553 552.368 332.39 552.368 332.39L557.781 296.401L564.547 223.81C556.428 213.538 540.098 207.483 540.098 207.483L535.879 199.796L514.782 201.504L511.093 210.114Z" fill="#E6E6E6"/>
<path d="M508.217 162.394C509.028 162.401 509.836 162.508 510.622 162.714C512.171 163.091 513.744 163.358 515.33 163.513C520.186 163.975 524.748 166.071 528.289 169.466C531.83 172.861 534.145 177.358 534.864 182.241C536.082 181.165 538.856 179.187 541.129 181.026C541.164 181.055 541.184 181.07 541.264 181.031C542.774 180.307 545.454 171.385 545.535 163.529C545.578 159.359 544.929 154.035 541.597 152.349L541.422 152.26L541.376 152.067C541.153 151.129 538.666 149.528 534.344 148.282C526.488 146.018 514.779 141.606 508.186 148.098C507.687 150.287 506.063 154.971 504.423 155.501C502.607 156.089 501.039 156.596 500.792 158.851C500.585 162.059 500.6 165.278 500.837 168.484C501.452 166.522 502.66 164.805 504.29 163.574C505.449 162.785 506.819 162.373 508.217 162.394Z" fill="#2F2E41"/>
<path d="M469.175 279.696L503.439 257.487L486.181 234.269L469.14 255.484L416.045 258.78C414.648 257.383 412.88 256.427 410.956 256.029C409.032 255.632 407.036 255.809 405.21 256.54C403.384 257.271 401.807 258.524 400.673 260.146C399.538 261.768 398.894 263.689 398.819 265.675C398.745 267.661 399.243 269.626 400.253 271.33C401.263 273.035 402.741 274.405 404.507 275.274C406.273 276.143 408.25 276.473 410.198 276.224C412.147 275.975 413.981 275.158 415.478 273.872L469.175 279.696Z" fill="#FFB6B6"/>
<path d="M535.24 226.488C537.229 238.669 499.675 261.928 499.675 261.928C499.674 259.069 477.26 280.653 476.248 278.282C473.373 271.543 471.351 255.581 467.333 253.026C465.035 251.565 481.172 237.84 481.172 237.84C481.172 237.84 489.619 229.228 500.703 218.364C503.781 215.234 507.591 212.943 511.779 211.704C515.966 210.465 520.396 210.319 524.654 211.279C524.654 211.279 533.252 214.307 535.24 226.488Z" fill="#E6E6E6"/>
<path d="M605.863 285.526L583.199 251.325L560.629 269.28L581.947 286.073L586.327 339.73C584.976 341.172 584.069 342.981 583.717 344.937C583.365 346.892 583.583 348.908 584.343 350.741C585.104 352.573 586.375 354.142 588.001 355.255C589.628 356.369 591.539 356.98 593.502 357.013C595.466 357.047 597.396 356.501 599.059 355.443C600.721 354.385 602.043 352.861 602.864 351.055C603.685 349.25 603.969 347.242 603.682 345.276C603.395 343.31 602.549 341.471 601.247 339.983L605.863 285.526Z" fill="#FFB6B6"/>
<path d="M551.904 219.803C563.894 217.533 587.666 255.04 587.666 255.04C584.842 255.101 606.637 277.325 604.316 278.399C597.72 281.451 581.996 283.834 579.557 287.954C578.163 290.31 564.263 274.273 564.263 274.273C564.263 274.273 555.576 265.908 544.611 254.922C541.454 251.874 539.11 248.067 537.797 243.856C536.485 239.645 536.246 235.166 537.104 230.837C537.104 230.837 539.914 222.073 551.904 219.803Z" fill="#E6E6E6"/>
<path d="M611.653 570.022C611.653 570.156 611.628 570.288 611.577 570.412C611.527 570.535 611.453 570.648 611.36 570.742C611.266 570.836 611.156 570.911 611.034 570.962C610.911 571.013 610.781 571.039 610.649 571.039H374.12C373.854 571.039 373.598 570.932 373.41 570.741C373.222 570.55 373.116 570.292 373.116 570.022C373.116 569.753 373.222 569.494 373.41 569.304C373.598 569.113 373.854 569.006 374.12 569.006H610.649C610.781 569.006 610.911 569.032 611.034 569.083C611.156 569.134 611.266 569.208 611.36 569.303C611.453 569.397 611.527 569.509 611.577 569.633C611.628 569.756 611.653 569.889 611.653 570.022Z" fill="#CCCCCC"/>
<path d="M392.537 262.026H105.477C100.992 262.031 96.6923 263.836 93.521 267.046C90.3498 270.256 88.5659 274.608 88.5609 279.147V460.031C88.566 464.57 90.3498 468.922 93.5211 472.132C96.6923 475.341 100.992 477.147 105.477 477.152H392.536C397.021 477.147 401.321 475.342 404.492 472.132C407.664 468.922 409.448 464.57 409.453 460.031V279.147C409.448 274.608 407.664 270.256 404.492 267.046C401.321 263.836 397.021 262.031 392.537 262.026Z" fill="#F9A826"/>
<path d="M392.537 262.026H105.477C100.992 262.031 96.6923 263.836 93.521 267.046C90.3498 270.256 88.5659 274.608 88.5609 279.147V460.031C88.566 464.57 90.3498 468.922 93.5211 472.132C96.6923 475.341 100.992 477.147 105.477 477.152H392.536C397.021 477.147 401.321 475.342 404.492 472.132C407.664 468.922 409.448 464.57 409.453 460.031V279.147C409.448 274.608 407.664 270.256 404.492 267.046C401.321 263.836 397.021 262.031 392.537 262.026ZM398.088 391.958C398.019 410.373 390.822 428.027 378.041 441.133C365.259 454.24 347.911 461.754 329.719 462.064C300.591 462.448 345.835 462.597 310.705 462.597C230.375 462.597 146.612 461.82 115.36 461.317C111.248 461.231 107.332 459.521 104.448 456.554C101.565 453.586 99.9415 449.594 99.9256 445.432V279.16C99.9272 277.67 100.512 276.24 101.552 275.185C102.592 274.13 104.003 273.534 105.476 273.529H392.525C393.997 273.531 395.409 274.122 396.452 275.175C397.494 276.227 398.083 277.655 398.088 279.145V391.958Z" fill="#3F3D56"/>
<path d="M357.2 157.867H138.491C136.556 157.87 134.668 158.477 133.087 159.606C131.506 160.734 130.307 162.329 129.654 164.173L95.8764 260.087C95.3722 261.518 95.215 263.051 95.418 264.557C95.6209 266.063 96.1781 267.498 97.0426 268.74C97.9071 269.983 99.0538 270.997 100.386 271.698C101.719 272.399 103.198 272.766 104.699 272.769L398.024 273.296H398.037C399.59 273.295 401.118 272.905 402.484 272.161C403.851 271.416 405.014 270.339 405.869 269.028C406.723 267.716 407.243 266.21 407.381 264.645C407.519 263.08 407.271 261.505 406.66 260.061L406.148 260.283L406.66 260.061L365.822 163.621C365.1 161.912 363.898 160.456 362.365 159.433C360.832 158.41 359.036 157.865 357.2 157.867Z" fill="#3F3D56"/>
<path d="M407.419 262.144C407.418 263.43 407.16 264.703 406.659 265.885L365.825 340.122C365.098 341.827 363.894 343.279 362.361 344.301C360.829 345.322 359.035 345.867 357.2 345.87H138.494C136.558 345.868 134.67 345.262 133.088 344.134C131.505 343.006 130.305 341.411 129.65 339.567L95.8787 265.859C95.4647 264.685 95.2835 263.44 95.3453 262.195C95.4072 260.949 95.7109 259.729 96.2391 258.602C96.7673 257.476 97.5097 256.466 98.4238 255.63C99.3379 254.795 100.406 254.149 101.566 253.731C102.57 253.365 103.63 253.177 104.697 253.176L140.528 253.108L155.152 253.082L347.589 252.741L362.221 252.715L398.027 252.647H398.035C400.524 252.647 402.91 253.648 404.67 255.429C406.43 257.21 407.419 259.625 407.419 262.144Z" fill="#3F3D56"/>
<path d="M126.997 397.71C131.334 397.71 190.89 401.394 190.89 405.784C190.89 410.173 131.334 413.606 126.997 413.606C124.915 413.606 122.917 412.769 121.444 411.278C119.972 409.788 119.144 407.766 119.144 405.658C119.144 403.55 119.972 401.529 121.444 400.038C122.917 398.548 124.915 397.71 126.997 397.71Z" fill="#3F3D56"/>
<path d="M343.58 99.5182H159.169C154.227 99.524 149.489 101.514 145.994 105.051C142.499 108.587 140.534 113.383 140.528 118.385V345.87H357.2C358.979 345.876 360.722 345.363 362.221 344.392V118.385C362.215 113.383 360.25 108.587 356.755 105.051C353.26 101.514 348.522 99.524 343.58 99.5182Z" fill="#E6E6E6"/>
<path d="M273.193 114.815H172.131C167.631 114.819 163.316 116.63 160.133 119.85C156.95 123.07 155.159 127.436 155.152 131.99V345.87H347.589V190.111C347.566 170.148 339.72 151.01 325.773 136.894C311.826 122.778 292.917 114.838 273.193 114.815Z" fill="white"/>
<path d="M314.804 326.875H187.936C186.84 326.875 185.788 327.316 185.013 328.101C184.237 328.886 183.802 329.95 183.802 331.06C183.802 332.17 184.237 333.234 185.013 334.019C185.788 334.804 186.84 335.245 187.936 335.245H314.804C315.901 335.245 316.952 334.804 317.728 334.019C318.503 333.234 318.939 332.17 318.939 331.06C318.939 329.95 318.503 328.886 317.728 328.101C316.952 327.316 315.901 326.875 314.804 326.875Z" fill="#E4E4E4"/>
<path d="M314.804 310.323H187.936C186.839 310.323 185.786 310.764 185.01 311.55C184.233 312.336 183.797 313.401 183.797 314.512C183.797 315.623 184.233 316.689 185.01 317.475C185.786 318.26 186.839 318.702 187.936 318.702H314.804C315.902 318.702 316.955 318.26 317.731 317.475C318.507 316.689 318.943 315.623 318.943 314.512C318.943 313.401 318.507 312.336 317.731 311.55C316.955 310.764 315.902 310.323 314.804 310.323Z" fill="#E4E4E4"/>
<path d="M242.932 293.779H187.936C186.84 293.779 185.788 294.22 185.013 295.005C184.237 295.79 183.802 296.854 183.802 297.964C183.802 299.074 184.237 300.139 185.013 300.924C185.788 301.709 186.84 302.149 187.936 302.149H242.932C244.028 302.149 245.08 301.709 245.855 300.924C246.631 300.139 247.067 299.074 247.067 297.964C247.067 296.854 246.631 295.79 245.855 295.005C245.08 294.22 244.028 293.779 242.932 293.779Z" fill="#E4E4E4"/>
<path d="M314.804 259.121H187.936C186.839 259.121 185.786 259.562 185.01 260.348C184.233 261.133 183.797 262.199 183.797 263.31C183.797 264.421 184.233 265.487 185.01 266.272C185.786 267.058 186.839 267.499 187.936 267.499H314.804C315.902 267.499 316.955 267.058 317.731 266.272C318.507 265.487 318.943 264.421 318.943 263.31C318.943 262.199 318.507 261.133 317.731 260.348C316.955 259.562 315.902 259.121 314.804 259.121Z" fill="#E4E4E4"/>
<path d="M314.804 242.577H187.936C186.84 242.577 185.788 243.018 185.013 243.803C184.237 244.588 183.802 245.652 183.802 246.762C183.802 247.872 184.237 248.937 185.013 249.721C185.788 250.506 186.84 250.947 187.936 250.947H314.804C315.901 250.947 316.952 250.506 317.728 249.721C318.503 248.937 318.939 247.872 318.939 246.762C318.939 245.652 318.503 244.588 317.728 243.803C316.952 243.018 315.901 242.577 314.804 242.577Z" fill="#E4E4E4"/>
<path d="M242.932 226.025H187.936C186.839 226.025 185.786 226.466 185.01 227.252C184.233 228.038 183.797 229.103 183.797 230.214C183.797 231.325 184.233 232.391 185.01 233.177C185.786 233.962 186.839 234.404 187.936 234.404H242.932C244.029 234.404 245.082 233.962 245.858 233.177C246.635 232.391 247.071 231.325 247.071 230.214C247.071 229.103 246.635 228.038 245.858 227.252C245.082 226.466 244.029 226.025 242.932 226.025Z" fill="#E4E4E4"/>
<path d="M314.804 191.366H187.936C186.839 191.366 185.786 191.808 185.01 192.593C184.233 193.379 183.797 194.444 183.797 195.556C183.797 196.667 184.233 197.732 185.01 198.518C185.786 199.303 186.839 199.745 187.936 199.745H314.804C315.902 199.745 316.955 199.303 317.731 198.518C318.507 197.732 318.943 196.667 318.943 195.556C318.943 194.444 318.507 193.379 317.731 192.593C316.955 191.808 315.902 191.366 314.804 191.366Z" fill="#F9A826"/>
<path d="M314.804 174.823H187.936C186.839 174.823 185.786 175.264 185.01 176.05C184.233 176.835 183.797 177.901 183.797 179.012C183.797 180.123 184.233 181.189 185.01 181.974C185.786 182.76 186.839 183.201 187.936 183.201H314.804C315.902 183.201 316.955 182.76 317.731 181.974C318.507 181.189 318.943 180.123 318.943 179.012C318.943 177.901 318.507 176.835 317.731 176.05C316.955 175.264 315.902 174.823 314.804 174.823Z" fill="#F9A826"/>
<path d="M242.932 158.271H187.936C186.839 158.271 185.786 158.712 185.01 159.498C184.233 160.283 183.797 161.349 183.797 162.46C183.797 163.571 184.233 164.636 185.01 165.422C185.786 166.208 186.839 166.649 187.936 166.649H242.932C244.029 166.649 245.082 166.208 245.858 165.422C246.635 164.636 247.071 163.571 247.071 162.46C247.071 161.349 246.635 160.283 245.858 159.498C245.082 158.712 244.029 158.271 242.932 158.271Z" fill="#F9A826"/>
<path d="M355.307 131.807C373.093 131.807 387.512 117.214 387.512 99.2127C387.512 81.2114 373.093 66.6185 355.307 66.6185C337.521 66.6185 323.103 81.2114 323.103 99.2127C323.103 117.214 337.521 131.807 355.307 131.807Z" fill="#F9A826"/>
<path d="M350.914 116.176C350.358 116.176 349.81 116.045 349.312 115.794C348.815 115.542 348.382 115.176 348.049 114.726L339.263 102.869C338.979 102.489 338.772 102.055 338.654 101.593C338.536 101.131 338.51 100.651 338.576 100.178C338.642 99.706 338.799 99.2516 339.039 98.841C339.279 98.4305 339.596 98.0718 339.973 97.7857C340.35 97.4995 340.78 97.2915 341.236 97.1734C341.693 97.0554 342.168 97.0297 342.634 97.0978C343.101 97.1659 343.549 97.3265 343.954 97.5704C344.359 97.8142 344.713 98.1366 344.994 98.5189L350.742 106.275L365.505 83.8628C366.033 83.0627 366.852 82.5073 367.784 82.3187C368.715 82.1301 369.683 82.3239 370.473 82.8573C371.264 83.3907 371.813 84.2201 371.999 85.163C372.185 86.1059 371.994 87.0851 371.467 87.8852L353.895 114.562C353.577 115.044 353.15 115.443 352.648 115.723C352.147 116.004 351.587 116.159 351.014 116.175C350.981 116.176 350.947 116.176 350.914 116.176Z" fill="white"/>
</g>
</svg>
