<svg width="600" height="568" viewBox="0 0 600 568" fill="none" xmlns="http://www.w3.org/2000/svg">
<g clip-path="url(#clip0_3_128)">
<path d="M488.299 57.0866C492.133 39.0886 488.488 18.0986 476.102 6.26003C475.86 26.4101 469.434 45.8122 457.96 61.0335C453.517 66.8853 448.045 72.8613 447.83 80.6292C447.696 85.4626 449.746 90.105 452.57 93.6847C455.395 97.2644 458.958 99.9433 462.479 102.581L462.997 103.632C474.331 90.4715 484.466 75.0847 488.299 57.0866Z" fill="#F0F0F0"/>
<path d="M475.854 6.52299C480.604 20.8539 481.31 36.5433 477.872 51.3627C477.181 54.5681 476.056 57.6281 474.537 60.43C472.981 63.1045 470.831 65.2506 468.311 66.6452C465.984 67.9999 463.467 69.0755 461.467 71.0578C460.456 72.09 459.646 73.3565 459.09 74.7743C458.534 76.1921 458.245 77.7291 458.241 79.2846C458.144 83.1601 459.263 86.8445 460.466 90.4037C461.802 94.3556 463.244 98.436 462.935 102.763C462.898 103.287 463.606 103.323 463.644 102.8C464.181 95.2719 459.739 88.9134 459.035 81.6119C458.706 78.2048 459.267 74.6632 461.456 72.1791C463.37 70.0069 465.964 68.8953 468.331 67.547C470.807 66.228 472.964 64.2312 474.615 61.731C476.253 59.0271 477.479 56.0221 478.241 52.8447C480.055 45.7228 480.885 38.3168 480.701 30.8981C480.531 22.4299 479.104 14.0575 476.482 6.14308C476.319 5.6533 475.692 6.0364 475.854 6.52297V6.52299Z" fill="white"/>
<path d="M479.223 46.6659C481.462 46.9922 483.728 46.3921 485.617 44.9727C487.507 43.5533 488.897 41.407 489.538 38.9171C489.666 38.4128 488.992 38.1596 488.863 38.6646C488.269 40.9844 486.975 42.9835 485.213 44.3012C483.451 45.6188 481.338 46.1681 479.255 45.85C478.803 45.7815 478.773 46.5977 479.223 46.6659Z" fill="white"/>
<path d="M469.57 66.1372C466.712 61.9705 465.323 56.7169 465.68 51.4239C465.716 50.8995 465.007 50.8632 464.972 51.3869C464.608 56.8957 466.063 62.3595 469.046 66.688C469.33 67.1003 469.853 66.5473 469.57 66.1372Z" fill="white"/>
<path d="M479.677 22.883C478.788 22.9644 477.895 22.7905 477.079 22.3767C476.263 21.963 475.549 21.3224 475.001 20.5125C474.721 20.0962 474.199 20.6497 474.477 21.0633C475.086 21.9548 475.875 22.6612 476.776 23.1206C477.677 23.5801 478.662 23.7786 479.644 23.6989C479.738 23.7003 479.828 23.6608 479.897 23.5885C479.965 23.5161 480.008 23.4163 480.015 23.3094C480.019 23.2013 479.985 23.0959 479.922 23.0161C479.859 22.9362 479.77 22.8884 479.677 22.883Z" fill="white"/>
<path d="M422.541 17.9115C422.71 18.1771 422.878 18.4428 423.044 18.715C425.291 22.3001 427.281 26.0893 428.995 30.0453C429.132 30.3488 429.266 30.6586 429.395 30.9659C433.436 40.5475 435.896 50.9093 436.65 61.5245C436.947 65.7489 436.964 69.9931 436.701 74.2205C436.338 80.0586 435.541 86.3554 436.837 91.8295C436.966 92.4023 437.127 92.9654 437.317 93.5154L461.843 104.276C461.91 104.269 461.974 104.267 462.041 104.26L463.003 104.741C463.03 104.524 463.054 104.298 463.08 104.081C463.096 103.956 463.107 103.827 463.123 103.702C463.132 103.617 463.14 103.532 463.153 103.457C463.156 103.428 463.159 103.4 463.16 103.378C463.172 103.303 463.176 103.231 463.186 103.161C463.322 101.901 463.45 100.636 463.571 99.3688C463.573 99.3624 463.573 99.3624 463.57 99.3535C464.569 89.7053 464.571 79.9547 463.575 70.3059C463.542 70.0185 463.512 69.7246 463.467 69.4323C462.952 65.1284 462.132 60.8803 461.015 56.7302C460.397 54.4601 459.679 52.2273 458.865 50.0407C456.753 44.3953 453.882 39.1676 450.358 34.5492C443.331 25.3436 433.825 18.8271 423.343 17.968C423.075 17.9463 422.812 17.9268 422.541 17.9115Z" fill="#F0F0F0"/>
<path d="M422.478 18.294C433.766 26.4446 442.537 38.4822 447.544 52.6969C448.669 55.735 449.371 58.9582 449.624 62.2479C449.78 65.4617 449.186 68.665 447.903 71.5252C446.754 74.2196 445.307 76.8225 444.746 79.7917C444.479 81.3165 444.495 82.889 444.793 84.4063C445.09 85.9236 445.663 87.3513 446.474 88.5957C448.424 91.7571 451.245 93.9234 454.067 95.9316C457.2 98.1613 460.486 100.42 462.502 104.089C462.747 104.533 463.332 104.071 463.088 103.627C459.579 97.2442 452.707 95.2454 448.325 89.9037C446.281 87.4112 444.876 84.1944 445.324 80.6944C445.716 77.6338 447.206 74.9482 448.391 72.2316C449.678 69.4626 450.356 66.373 450.366 63.2326C450.26 59.9387 449.667 56.6897 448.613 53.6248C446.336 46.6811 443.125 40.1926 439.098 34.397C434.533 27.7531 429.014 22.0571 422.781 17.5553C422.395 17.2768 422.094 18.0174 422.478 18.2941V18.294Z" fill="white"/>
<path d="M446.166 48.0106C448.123 46.72 449.619 44.6702 450.385 42.2275C451.151 39.7848 451.138 37.1081 450.348 34.6754C450.187 34.1839 449.516 34.4493 449.677 34.9416C450.417 37.2053 450.429 39.6986 449.711 41.9716C448.994 44.2446 447.594 46.1475 445.764 47.3369C445.367 47.5959 445.771 48.2682 446.166 48.0106Z" fill="white"/>
<path d="M448.642 70.2473C444.181 68.9012 440.324 65.6689 437.841 61.195C437.595 60.7515 437.01 61.2138 437.256 61.6567C439.847 66.3068 443.867 69.6611 448.512 71.0502C448.955 71.1822 449.083 70.3787 448.642 70.2473Z" fill="white"/>
<path d="M434.088 28.7071C433.421 29.3882 432.617 29.8679 431.749 30.1031C430.881 30.3383 429.976 30.3217 429.115 30.0547C428.673 29.9162 428.546 30.72 428.984 30.8575C429.937 31.1474 430.937 31.1644 431.896 30.907C432.856 30.6495 433.746 30.1256 434.489 29.3808C434.564 29.3174 434.615 29.2234 434.632 29.1179C434.65 29.0125 434.631 28.9035 434.581 28.8131C434.527 28.7242 434.446 28.6632 434.353 28.6434C434.261 28.6235 434.165 28.6464 434.088 28.7071V28.7071Z" fill="white"/>
<path d="M390.112 424.463C307.885 424.463 240.988 347.462 240.988 252.814C240.988 158.167 307.885 81.165 390.112 81.165C398.805 81.1638 407.482 82.0292 416.046 83.7517C416.153 83.7729 416.255 83.8181 416.346 83.8848C416.438 83.9515 416.517 84.0384 416.579 84.1404C416.642 84.2424 416.686 84.3576 416.71 84.4793C416.733 84.601 416.736 84.7269 416.717 84.8498C416.698 84.9726 416.659 85.09 416.601 85.1953C416.542 85.3005 416.467 85.3914 416.378 85.463C416.289 85.5345 416.189 85.5851 416.083 85.612C415.977 85.6389 415.868 85.6415 415.761 85.6196C407.292 83.9165 398.71 83.0606 390.112 83.0617C308.793 83.0617 242.636 159.212 242.636 252.814C242.636 346.416 308.793 422.567 390.112 422.567C471.431 422.567 537.589 346.416 537.589 252.814C537.625 210.507 523.901 169.717 499.117 138.474C498.971 138.288 498.895 138.043 498.906 137.793C498.917 137.542 499.013 137.307 499.174 137.138C499.335 136.969 499.547 136.881 499.765 136.892C499.982 136.902 500.187 137.012 500.335 137.196C525.395 168.788 539.273 210.034 539.236 252.814C539.236 347.462 472.34 424.463 390.112 424.463Z" fill="#E4E4E4"/>
<path d="M455.865 140.035C472.16 140.035 485.369 124.83 485.369 106.074C485.369 87.3176 472.16 72.1127 455.865 72.1127C439.57 72.1127 426.36 87.3176 426.36 106.074C426.36 124.83 439.57 140.035 455.865 140.035Z" fill="#F9A826"/>
<path d="M451.84 123.749C451.33 123.749 450.828 123.612 450.372 123.35C449.916 123.088 449.52 122.707 449.214 122.237L441.165 109.884C440.907 109.487 440.719 109.035 440.612 108.555C440.505 108.074 440.481 107.574 440.542 107.083C440.603 106.592 440.747 106.119 440.967 105.693C441.186 105.266 441.477 104.893 441.822 104.595C442.167 104.298 442.559 104.081 442.976 103.958C443.394 103.835 443.828 103.808 444.255 103.878C444.682 103.948 445.092 104.114 445.463 104.367C445.834 104.62 446.158 104.954 446.416 105.351L451.682 113.432L465.208 90.0802C465.692 89.25 466.442 88.6745 467.294 88.48C468.146 88.2854 469.031 88.4876 469.753 89.0423C470.476 89.5969 470.978 90.4587 471.15 91.4389C471.322 92.4191 471.149 93.4376 470.669 94.2713L454.571 122.066C454.28 122.569 453.888 122.984 453.429 123.277C452.969 123.569 452.456 123.731 451.931 123.748C451.901 123.748 451.87 123.749 451.84 123.749Z" fill="white"/>
<path d="M386.276 226.176L340.777 80.4825L341.931 80.005L333.564 53.208L332.41 53.6859L318.44 8.95333C317.918 7.28261 317.116 5.74653 316.078 4.4328C315.041 3.11907 313.789 2.05342 312.393 1.29669C310.998 0.53995 309.487 0.106947 307.946 0.022414C306.406 -0.0621189 304.866 0.203469 303.414 0.804009L221.163 34.8354C219.712 35.4358 218.377 36.3595 217.236 37.5537C216.094 38.7478 215.169 40.189 214.511 41.795C213.854 43.401 213.477 45.1404 213.404 46.9137C213.33 48.6871 213.561 50.4598 214.083 52.1305L223.823 83.3207L222 84.1288L228.218 102.713L229.677 102.067L230.968 106.2L229.415 106.889L235.633 125.474L236.822 124.946L281.919 269.354C282.438 271.026 283.239 272.565 284.276 273.88C285.313 275.196 286.565 276.263 287.961 277.02C289.357 277.777 290.87 278.21 292.411 278.293C293.953 278.375 295.493 278.107 296.945 277.503L379.195 243.472C382.125 242.256 384.515 239.752 385.842 236.509C387.17 233.267 387.325 229.551 386.276 226.176Z" fill="#3F3D56"/>
<path d="M292.619 272.701C291.461 272.699 290.331 272.285 289.384 271.517C288.437 270.75 287.719 269.665 287.326 268.411L218.774 48.8952C218.27 47.2784 218.344 45.497 218.98 43.9429C219.616 42.3887 220.762 41.1891 222.167 40.6079L239.667 33.3671L239.641 34.0718C239.596 35.2952 239.813 36.5126 240.274 37.6167C240.734 38.7207 241.423 39.6776 242.28 40.403C243.137 41.1283 244.136 41.6 245.188 41.7763C246.241 41.9526 247.315 41.8282 248.317 41.414L287.155 25.3447C288.093 24.8502 288.916 24.1087 289.558 23.1802C290.201 22.2516 290.644 21.162 290.853 19.9996C291.059 18.8566 291.028 17.6735 290.762 16.547C290.495 15.4205 290.001 14.3825 289.32 13.5177L288.91 12.9931L306.987 5.51335C308.391 4.93459 309.938 5.0207 311.288 5.75281C312.638 6.48491 313.68 7.80326 314.187 9.41874L379.591 218.855C380.926 223.146 380.728 227.87 379.04 231.993C377.352 236.115 374.313 239.299 370.589 240.845L294.526 272.316C293.914 272.57 293.269 272.701 292.619 272.701Z" fill="white"/>
<path d="M285.918 117.003C298.203 117.003 308.163 105.539 308.163 91.3981C308.163 77.2568 298.203 65.793 285.918 65.793C273.632 65.793 263.673 77.2568 263.673 91.3981C263.673 105.539 273.632 117.003 285.918 117.003Z" fill="#F9A826"/>
<path d="M341.04 128.634L264.005 160.508C263.764 160.608 263.509 160.653 263.253 160.639C262.998 160.626 262.747 160.554 262.515 160.429C262.284 160.304 262.076 160.127 261.903 159.909C261.731 159.691 261.598 159.436 261.511 159.159C261.425 158.882 261.387 158.588 261.399 158.294C261.411 158 261.474 157.711 261.583 157.445C261.693 157.178 261.846 156.94 262.036 156.742C262.226 156.544 262.447 156.391 262.688 156.292L339.724 124.419C340.209 124.22 340.743 124.25 341.209 124.503C341.675 124.757 342.034 125.213 342.209 125.771C342.383 126.329 342.358 126.944 342.139 127.48C341.92 128.017 341.525 128.432 341.04 128.634Z" fill="#E6E6E6"/>
<path d="M318.164 148.843L292.824 159.327C292.584 159.428 292.328 159.472 292.073 159.459C291.817 159.445 291.566 159.373 291.335 159.248C291.103 159.123 290.895 158.946 290.723 158.729C290.551 158.511 290.418 158.256 290.331 157.979C290.245 157.702 290.207 157.408 290.219 157.113C290.231 156.819 290.294 156.531 290.403 156.264C290.512 155.998 290.666 155.759 290.856 155.562C291.045 155.364 291.267 155.211 291.508 155.112L316.847 144.628C317.333 144.427 317.868 144.456 318.335 144.709C318.802 144.963 319.162 145.419 319.336 145.978C319.511 146.537 319.486 147.153 319.266 147.69C319.046 148.228 318.649 148.642 318.164 148.843Z" fill="#E6E6E6"/>
<path d="M324.19 168.143L298.851 178.627C298.611 178.726 298.356 178.77 298.1 178.756C297.845 178.742 297.595 178.671 297.364 178.545C297.132 178.42 296.925 178.243 296.753 178.026C296.581 177.808 296.448 177.554 296.362 177.277C296.275 177 296.237 176.706 296.249 176.412C296.261 176.119 296.324 175.83 296.433 175.564C296.542 175.298 296.695 175.06 296.884 174.862C297.073 174.664 297.294 174.511 297.535 174.411L322.874 163.927C323.36 163.726 323.895 163.756 324.362 164.009C324.828 164.262 325.189 164.718 325.363 165.277C325.538 165.836 325.513 166.452 325.293 166.99C325.073 167.527 324.676 167.942 324.19 168.143V168.143Z" fill="#E6E6E6"/>
<path d="M327.277 178.028L301.938 188.512C301.698 188.612 301.442 188.657 301.186 188.643C300.931 188.63 300.68 188.559 300.448 188.433C300.217 188.308 300.009 188.132 299.836 187.914C299.664 187.696 299.531 187.441 299.444 187.164C299.358 186.886 299.319 186.592 299.332 186.298C299.344 186.004 299.407 185.715 299.516 185.449C299.626 185.183 299.78 184.944 299.969 184.746C300.159 184.548 300.381 184.395 300.622 184.296L325.961 173.812C326.202 173.712 326.457 173.667 326.713 173.681C326.968 173.694 327.219 173.766 327.451 173.891C327.682 174.016 327.89 174.193 328.063 174.411C328.235 174.629 328.368 174.884 328.455 175.161C328.541 175.438 328.579 175.732 328.567 176.026C328.555 176.32 328.492 176.609 328.383 176.875C328.273 177.142 328.119 177.38 327.93 177.578C327.74 177.776 327.518 177.929 327.277 178.028L327.277 178.028Z" fill="#E6E6E6"/>
<path d="M335.346 152.478L281.585 174.722C281.344 174.822 281.088 174.866 280.833 174.853C280.577 174.839 280.326 174.768 280.095 174.643C279.863 174.518 279.655 174.341 279.483 174.123C279.311 173.905 279.178 173.65 279.091 173.373C279.005 173.096 278.966 172.802 278.979 172.508C278.991 172.213 279.054 171.925 279.163 171.659C279.272 171.392 279.426 171.153 279.616 170.956C279.805 170.758 280.027 170.605 280.268 170.506L334.029 148.262C334.27 148.162 334.525 148.117 334.781 148.131C335.037 148.145 335.287 148.216 335.519 148.341C335.751 148.466 335.959 148.643 336.131 148.861C336.303 149.079 336.436 149.334 336.523 149.611C336.609 149.888 336.648 150.182 336.635 150.476C336.623 150.77 336.56 151.059 336.451 151.325C336.342 151.592 336.188 151.831 335.998 152.028C335.808 152.226 335.587 152.379 335.346 152.478Z" fill="#E6E6E6"/>
<path d="M324.517 202.024L315.316 205.831C314.491 206.171 313.581 206.121 312.788 205.69C311.995 205.26 311.382 204.484 311.086 203.534C310.789 202.584 310.832 201.537 311.206 200.623C311.579 199.71 312.253 199.005 313.078 198.662L322.278 194.856C323.104 194.515 324.014 194.565 324.807 194.996C325.6 195.427 326.213 196.202 326.509 197.152C326.806 198.103 326.763 199.149 326.389 200.063C326.016 200.976 325.342 201.682 324.517 202.024Z" fill="#F9A826"/>
<path d="M252.014 34.0769C252.72 34.0769 253.293 33.4176 253.293 32.6042C253.293 31.7908 252.72 31.1314 252.014 31.1314C251.307 31.1314 250.734 31.7908 250.734 32.6042C250.734 33.4176 251.307 34.0769 252.014 34.0769Z" fill="white"/>
<path d="M104.867 115.435C119.208 96.0053 142.476 83.7603 163.927 90.1088C144.606 106.665 130.997 130.554 125.505 157.548C123.42 167.968 122.043 179.807 114.694 186.346C110.121 190.415 103.972 191.527 98.2278 190.789C92.4834 190.05 87.016 187.638 81.6223 185.246L80.1882 185.429C83.7956 160.275 90.5271 134.865 104.867 115.435Z" fill="#F0F0F0"/>
<path d="M163.873 90.6401C146.164 96.0988 130.399 107.842 118.818 124.2C116.27 127.671 114.214 131.582 112.725 135.79C111.389 139.943 111.044 144.432 111.725 148.79C112.289 152.869 113.277 156.965 112.97 161.131C112.785 163.26 112.211 165.321 111.286 167.177C110.362 169.033 109.106 170.644 107.603 171.902C103.927 175.151 99.4565 176.686 95.0395 178.011C90.1352 179.484 85.021 180.923 81.0794 184.808C80.6019 185.278 79.9953 184.398 80.4721 183.928C87.3298 177.17 97.069 177.743 104.709 172.76C108.273 170.435 111.251 166.859 111.892 162.048C112.453 157.841 111.438 153.616 110.836 149.492C110.117 145.252 110.312 140.873 111.402 136.739C112.7 132.458 114.622 128.462 117.085 124.922C122.52 116.852 129.024 109.816 136.357 104.072C144.696 97.4624 153.955 92.5433 163.734 89.5276C164.34 89.3413 164.474 90.4549 163.873 90.6401H163.873Z" fill="white"/>
<path d="M122.277 118.68C120.157 116.071 118.911 112.679 118.762 109.11C118.614 105.541 119.572 102.028 121.466 99.1973C121.851 98.6261 122.64 99.2878 122.255 99.8598C120.487 102.492 119.594 105.765 119.739 109.088C119.883 112.411 121.054 115.565 123.042 117.981C123.473 118.507 122.706 119.203 122.277 118.68H122.277Z" fill="white"/>
<path d="M111.202 146.766C117.542 147.074 123.75 144.62 128.588 139.894C129.067 139.426 129.674 140.306 129.195 140.774C124.153 145.681 117.688 148.22 111.091 147.882C110.462 147.849 110.577 146.733 111.202 146.766Z" fill="white"/>
<path d="M144.946 98.9242C145.584 100.131 146.472 101.136 147.53 101.849C148.589 102.563 149.785 102.963 151.011 103.013C151.64 103.036 151.525 104.152 150.9 104.129C149.546 104.067 148.225 103.623 147.054 102.838C145.883 102.052 144.897 100.949 144.181 99.6232C144.105 99.5048 144.07 99.3572 144.085 99.2106C144.1 99.064 144.162 98.9293 144.26 98.8338C144.362 98.7418 144.491 98.6997 144.619 98.7167C144.747 98.7336 144.865 98.8082 144.946 98.9242Z" fill="white"/>
<path d="M195.825 168.231C195.432 168.229 195.039 168.228 194.641 168.233C189.357 168.241 184.083 168.742 178.87 169.732C178.466 169.802 178.057 169.879 177.655 169.961C165.118 172.501 153.099 177.699 142.21 185.289C137.88 188.314 133.755 191.714 129.873 195.459C124.511 200.631 119.055 206.731 112.709 209.482C112.05 209.777 111.375 210.026 110.689 210.225L80.4936 187.429C80.4475 187.337 80.3967 187.254 80.3503 187.162L79.1085 186.315C79.297 186.106 79.4965 185.894 79.685 185.684C79.7939 185.562 79.9095 185.446 80.0185 185.324C80.0932 185.244 80.1683 185.165 80.2318 185.088C80.2566 185.061 80.2817 185.035 80.302 185.016C80.3655 184.939 80.4315 184.876 80.4905 184.807C81.6024 183.616 82.7235 182.432 83.8538 181.256C83.8584 181.248 83.8584 181.248 83.8696 181.245C92.5019 172.304 101.858 164.114 111.998 157.819C112.303 157.629 112.612 157.432 112.931 157.253C117.515 154.445 122.29 152.072 127.21 150.159C129.907 149.122 132.648 148.242 135.422 147.524C142.593 145.684 149.97 145.153 157.285 145.951C171.865 147.546 185.84 154.49 195.124 167.248C195.361 167.575 195.592 167.897 195.825 168.231Z" fill="#F0F0F0"/>
<path d="M195.505 168.621C178.51 160.707 159.781 159.158 141.977 164.193C138.128 165.199 134.44 166.897 131.05 169.225C127.811 171.615 125.188 174.96 123.452 178.912C121.769 182.559 120.415 186.514 117.991 189.627C116.73 191.2 115.194 192.447 113.484 193.289C111.775 194.13 109.93 194.545 108.071 194.508C103.437 194.555 99.0653 192.682 94.8451 190.68C90.1593 188.457 85.3228 186.062 80.1439 186.432C79.5164 186.477 79.4926 185.353 80.1191 185.309C89.1296 184.665 96.6061 191.872 105.312 193.188C109.374 193.802 113.622 193.01 116.651 189.614C119.299 186.643 120.699 182.566 122.375 178.856C124.019 174.972 126.465 171.611 129.498 169.066C132.774 166.547 136.398 164.688 140.216 163.569C148.777 160.892 157.65 159.781 166.51 160.277C176.625 160.778 186.591 163.267 195.976 167.637C196.557 167.907 196.082 168.89 195.505 168.621L195.505 168.621Z" fill="white"/>
<path d="M147.627 162.184C147.298 158.631 148.078 155.059 149.826 152.106C151.574 149.154 154.177 147.013 157.17 146.065C157.776 145.876 158.06 146.951 157.453 147.141C154.665 148.017 152.24 150.012 150.617 152.765C148.994 155.518 148.28 158.849 148.603 162.155C148.672 162.874 147.696 162.898 147.627 162.184V162.184Z" fill="white"/>
<path d="M124.094 176.933C128.994 181.573 135.234 183.916 141.569 183.495C142.197 183.453 142.221 184.576 141.594 184.618C135.001 185.042 128.512 182.588 123.421 177.747C122.936 177.286 123.611 176.474 124.094 176.933H124.094Z" fill="white"/>
<path d="M176.06 162.119C175.938 163.524 176.122 164.942 176.594 166.245C177.066 167.549 177.812 168.697 178.764 169.587C179.254 170.041 178.578 170.853 178.092 170.401C177.043 169.413 176.221 168.143 175.696 166.705C175.172 165.266 174.962 163.701 175.084 162.147C175.085 162 175.135 161.858 175.223 161.751C175.311 161.644 175.432 161.58 175.56 161.571C175.689 161.568 175.814 161.624 175.908 161.727C176.001 161.829 176.056 161.97 176.06 162.119Z" fill="white"/>
<path d="M535.24 488.881C550.876 493.294 569.112 489.098 579.397 474.842C561.891 474.563 545.035 467.166 531.811 453.959C526.727 448.845 521.536 442.547 514.787 442.299C510.588 442.144 506.555 444.504 503.445 447.755C500.335 451.007 498.007 455.108 495.716 459.161L494.803 459.756C506.236 472.803 519.604 484.468 535.24 488.881Z" fill="#F0F0F0"/>
<path d="M579.169 474.555C566.718 480.023 553.088 480.836 540.213 476.879C537.428 476.084 534.77 474.788 532.336 473.04C530.012 471.249 528.148 468.775 526.936 465.874C525.759 463.195 524.825 460.298 523.102 457.995C522.206 456.832 521.105 455.899 519.874 455.259C518.642 454.62 517.307 454.287 515.955 454.283C512.588 454.171 509.387 455.459 506.295 456.844C502.862 458.381 499.317 460.041 495.558 459.686C495.103 459.642 495.071 460.458 495.526 460.501C502.066 461.12 507.59 456.007 513.933 455.196C516.893 454.818 519.97 455.464 522.128 457.983C524.015 460.186 524.981 463.172 526.153 465.896C527.298 468.746 529.033 471.23 531.205 473.13C533.554 475.015 536.165 476.426 538.926 477.303C545.113 479.392 551.547 480.347 557.992 480.135C565.349 479.94 572.623 478.297 579.499 475.279C579.924 475.092 579.591 474.37 579.169 474.555H579.169Z" fill="white"/>
<path d="M544.293 478.434C544.01 481.011 544.531 483.619 545.764 485.794C546.998 487.969 548.862 489.568 551.025 490.307C551.464 490.455 551.684 489.678 551.245 489.53C549.229 488.847 547.493 487.356 546.348 485.329C545.203 483.301 544.726 480.868 545.002 478.471C545.062 477.95 544.353 477.916 544.293 478.434V478.434Z" fill="white"/>
<path d="M527.377 467.322C530.997 464.033 535.561 462.434 540.16 462.846C540.615 462.887 540.647 462.071 540.192 462.03C535.406 461.612 530.659 463.286 526.899 466.719C526.541 467.047 527.021 467.648 527.377 467.322H527.377Z" fill="white"/>
<path d="M564.955 478.956C564.885 477.933 565.036 476.905 565.395 475.966C565.755 475.027 566.311 474.205 567.015 473.574C567.376 473.252 566.896 472.651 566.536 472.971C565.762 473.672 565.148 474.581 564.749 475.617C564.35 476.654 564.177 477.788 564.247 478.919C564.245 479.026 564.28 479.13 564.343 479.209C564.405 479.288 564.492 479.337 564.585 479.345C564.679 479.35 564.77 479.311 564.84 479.238C564.909 479.165 564.951 479.064 564.955 478.956Z" fill="white"/>
<path d="M569.275 413.191C569.044 413.384 568.813 413.578 568.576 413.77C565.462 416.356 562.17 418.647 558.733 420.619C558.469 420.777 558.2 420.931 557.933 421.08C549.609 425.731 540.607 428.562 531.385 429.43C527.715 429.772 524.027 429.792 520.355 429.489C515.283 429.072 509.812 428.154 505.057 429.645C504.559 429.794 504.07 429.979 503.592 430.198L494.243 458.429C494.25 458.505 494.251 458.58 494.257 458.656L493.839 459.764C494.028 459.795 494.224 459.822 494.412 459.853C494.522 459.871 494.633 459.883 494.742 459.902C494.816 459.912 494.889 459.922 494.955 459.936C494.98 459.94 495.004 459.943 495.023 459.944C495.089 459.958 495.151 459.963 495.212 459.975C496.307 460.131 497.405 460.278 498.507 460.417C498.512 460.42 498.512 460.42 498.52 460.416C506.902 461.567 515.373 461.569 523.756 460.423C524.005 460.385 524.261 460.349 524.515 460.298C528.254 459.705 531.944 458.761 535.55 457.475C537.522 456.764 539.462 455.938 541.362 455.001C546.266 452.57 550.808 449.265 554.82 445.208C562.818 437.121 568.479 426.179 569.225 414.113C569.244 413.804 569.261 413.502 569.275 413.191Z" fill="#F0F0F0"/>
<path d="M568.942 413.117C561.861 426.111 551.403 436.206 539.054 441.969C536.414 443.264 533.614 444.072 530.756 444.363C527.964 444.544 525.181 443.86 522.696 442.383C520.356 441.06 518.094 439.395 515.515 438.75C514.19 438.442 512.824 438.46 511.506 438.803C510.187 439.145 508.947 439.805 507.866 440.738C505.119 442.983 503.237 446.229 501.493 449.478C499.556 453.085 497.593 456.866 494.406 459.188C494.02 459.469 494.422 460.142 494.807 459.861C500.352 455.823 502.089 447.912 506.73 442.869C508.895 440.516 511.69 438.899 514.73 439.415C517.389 439.866 519.723 441.581 522.083 442.944C524.488 444.426 527.173 445.206 529.901 445.218C532.762 445.096 535.585 444.413 538.248 443.2C544.28 440.58 549.917 436.884 554.952 432.248C560.724 426.993 565.673 420.641 569.584 413.466C569.826 413.022 569.183 412.676 568.942 413.117H568.942Z" fill="white"/>
<path d="M543.125 440.383C544.246 442.637 546.027 444.358 548.149 445.24C550.272 446.122 552.597 446.107 554.71 445.197C555.138 445.012 554.907 444.239 554.479 444.425C552.513 445.276 550.346 445.29 548.372 444.464C546.397 443.638 544.744 442.027 543.71 439.921C543.485 439.464 542.901 439.928 543.125 440.383Z" fill="white"/>
<path d="M523.807 443.234C524.976 438.099 527.784 433.659 531.671 430.801C532.056 430.518 531.655 429.845 531.27 430.127C527.23 433.11 524.316 437.737 523.109 443.084C522.994 443.594 523.692 443.741 523.807 443.234Z" fill="white"/>
<path d="M559.896 426.481C559.304 425.713 558.887 424.788 558.683 423.789C558.478 422.79 558.493 421.748 558.725 420.757C558.845 420.249 558.147 420.102 558.027 420.607C557.776 421.703 557.761 422.854 557.984 423.958C558.208 425.063 558.663 426.087 559.31 426.943C559.365 427.029 559.447 427.088 559.539 427.108C559.63 427.128 559.725 427.106 559.803 427.049C559.881 426.987 559.934 426.893 559.951 426.786C559.968 426.68 559.948 426.57 559.896 426.481Z" fill="white"/>
<path d="M597.894 315.893L574.051 362.077L574.957 362.627L566.883 380.247L565.202 379.223L559.897 389.493L561.215 390.365L552.564 407.606L551.064 406.611L473.265 557.32C471.224 561.264 467.908 564.116 464.043 565.248C460.178 566.381 456.081 565.702 452.651 563.361L308.017 464.44C304.59 462.092 302.113 458.275 301.129 453.826C300.145 449.378 300.735 444.661 302.769 440.713L427.399 199.285C429.439 195.341 432.755 192.49 436.62 191.357C440.485 190.225 444.582 190.903 448.012 193.244L592.646 292.165C596.072 294.515 598.548 298.332 599.532 302.78C600.515 307.228 599.927 311.944 597.894 315.893Z" fill="#3F3D56"/>
<path d="M457.806 554.042L312.662 454.773C311.606 454.049 310.843 452.873 310.539 451.501C310.236 450.13 310.418 448.677 311.045 447.459L436.502 204.425C437.131 203.21 438.153 202.331 439.344 201.982C440.535 201.633 441.798 201.842 442.856 202.563L587.999 301.832C589.055 302.556 589.819 303.733 590.122 305.104C590.425 306.475 590.243 307.929 589.617 309.146L464.16 552.18C463.531 553.396 462.508 554.274 461.317 554.623C460.126 554.973 458.863 554.763 457.806 554.042Z" fill="white"/>
<path d="M517.426 248.357C518.133 248.357 518.706 247.697 518.706 246.884C518.706 246.07 518.133 245.411 517.426 245.411C516.72 245.411 516.147 246.07 516.147 246.884C516.147 247.697 516.72 248.357 517.426 248.357Z" fill="white"/>
<path d="M509.508 422.451L388.349 339.587C387.969 339.329 387.637 338.988 387.372 338.582C387.107 338.176 386.914 337.714 386.805 337.223C386.695 336.731 386.671 336.219 386.733 335.717C386.796 335.214 386.944 334.731 387.17 334.294C387.395 333.858 387.693 333.477 388.046 333.174C388.4 332.87 388.802 332.65 389.229 332.525C389.657 332.401 390.102 332.375 390.538 332.449C390.974 332.523 391.393 332.696 391.772 332.957L512.93 415.821C513.31 416.079 513.642 416.42 513.907 416.826C514.173 417.232 514.365 417.694 514.475 418.186C514.585 418.677 514.609 419.189 514.546 419.691C514.484 420.194 514.335 420.677 514.11 421.114C513.885 421.55 513.587 421.931 513.233 422.234C512.88 422.538 512.478 422.758 512.05 422.883C511.623 423.007 511.178 423.033 510.742 422.959C510.305 422.885 509.886 422.712 509.508 422.451H509.508Z" fill="#E6E6E6"/>
<path d="M461.13 409.611L421.278 382.355C420.899 382.096 420.569 381.754 420.306 381.349C420.042 380.943 419.851 380.482 419.742 379.991C419.633 379.5 419.61 378.989 419.673 378.488C419.736 377.987 419.884 377.505 420.108 377.069C420.333 376.634 420.63 376.254 420.983 375.951C421.335 375.647 421.736 375.427 422.162 375.302C422.589 375.177 423.032 375.15 423.468 375.223C423.903 375.295 424.322 375.466 424.7 375.725L464.553 402.981C464.931 403.24 465.261 403.582 465.525 403.987C465.788 404.393 465.979 404.854 466.088 405.345C466.196 405.836 466.22 406.346 466.157 406.847C466.094 407.348 465.946 407.83 465.721 408.266C465.497 408.701 465.2 409.081 464.847 409.384C464.495 409.688 464.094 409.908 463.668 410.033C463.241 410.158 462.798 410.185 462.363 410.113C461.927 410.04 461.508 409.87 461.13 409.611Z" fill="#E6E6E6"/>
<path d="M445.461 439.965L405.609 412.708C404.845 412.186 404.293 411.335 404.074 410.344C403.855 409.353 403.987 408.303 404.441 407.424C404.895 406.545 405.633 405.909 406.494 405.657C407.355 405.404 408.268 405.556 409.032 406.078L448.884 433.334C449.262 433.593 449.592 433.935 449.856 434.341C450.119 434.746 450.311 435.208 450.419 435.698C450.528 436.189 450.551 436.7 450.488 437.201C450.425 437.702 450.277 438.184 450.053 438.619C449.828 439.055 449.531 439.435 449.179 439.738C448.826 440.041 448.425 440.261 447.999 440.386C447.573 440.511 447.129 440.538 446.694 440.466C446.258 440.394 445.84 440.223 445.461 439.965Z" fill="#E6E6E6"/>
<path d="M437.436 455.511L397.584 428.255C397.204 427.997 396.873 427.655 396.609 427.25C396.344 426.844 396.152 426.382 396.043 425.891C395.933 425.4 395.909 424.888 395.972 424.386C396.035 423.884 396.183 423.401 396.408 422.965C396.633 422.53 396.931 422.149 397.284 421.845C397.637 421.542 398.038 421.322 398.465 421.197C398.893 421.073 399.337 421.046 399.773 421.12C400.209 421.193 400.628 421.365 401.006 421.625L440.858 448.881C441.239 449.139 441.571 449.48 441.836 449.886C442.101 450.292 442.294 450.754 442.404 451.246C442.513 451.737 442.537 452.249 442.475 452.752C442.412 453.254 442.264 453.737 442.039 454.174C441.814 454.61 441.516 454.991 441.162 455.295C440.808 455.598 440.406 455.819 439.979 455.943C439.551 456.067 439.106 456.093 438.67 456.019C438.234 455.945 437.814 455.772 437.436 455.511V455.511Z" fill="#E6E6E6"/>
<path d="M475.756 439.861L391.203 382.032C390.443 381.508 389.894 380.658 389.678 379.669C389.461 378.68 389.593 377.632 390.046 376.755C390.498 375.879 391.234 375.244 392.093 374.99C392.951 374.737 393.862 374.885 394.625 375.402L479.179 433.231C479.559 433.489 479.891 433.83 480.156 434.236C480.421 434.642 480.614 435.104 480.724 435.595C480.833 436.087 480.858 436.599 480.795 437.102C480.732 437.604 480.584 438.087 480.359 438.524C480.134 438.96 479.836 439.341 479.482 439.645C479.129 439.948 478.727 440.169 478.299 440.293C477.871 440.417 477.427 440.443 476.99 440.369C476.554 440.295 476.135 440.122 475.756 439.861Z" fill="#E6E6E6"/>
<path d="M459.64 513.767L445.17 503.87C443.873 502.981 442.936 501.535 442.564 499.851C442.193 498.167 442.417 496.381 443.188 494.888C443.959 493.394 445.214 492.313 446.677 491.884C448.14 491.454 449.691 491.71 450.99 492.596L465.46 502.493C466.759 503.381 467.698 504.827 468.071 506.512C468.443 508.198 468.219 509.984 467.447 511.479C466.676 512.974 465.42 514.055 463.955 514.484C462.491 514.913 460.939 514.655 459.64 513.767Z" fill="#F9A826"/>
<path d="M486.638 353.08C503.019 353.08 516.298 337.795 516.298 318.94C516.298 300.085 503.019 284.8 486.638 284.8C470.257 284.8 456.978 300.085 456.978 318.94C456.978 337.795 470.257 353.08 486.638 353.08Z" fill="#F9A826"/>
<path d="M0.349304 457.673H401.733V190.196C401.731 188.192 401.038 186.271 399.807 184.854C398.576 183.437 396.907 182.639 395.166 182.637H6.91653C5.17543 182.639 3.5062 183.437 2.27503 184.854C1.04387 186.271 0.351315 188.192 0.349304 190.196V457.673Z" fill="#CACACA"/>
<path d="M389.332 193.092H12.7507V439.177H389.332V193.092Z" fill="white"/>
<path d="M5.39958e-10 450.435V483.442C-1.29829e-05 484.811 0.234121 486.165 0.689035 487.43C1.14395 488.694 1.81074 489.843 2.65132 490.81C3.4919 491.778 4.48983 492.545 5.58811 493.069C6.6864 493.592 7.86353 493.862 9.0523 493.862H157.2V559.002H155.232C155.077 559.002 154.924 559.037 154.782 559.105C154.639 559.173 154.51 559.273 154.4 559.398C154.291 559.524 154.204 559.673 154.145 559.838C154.086 560.002 154.056 560.178 154.056 560.356V564.886C154.056 565.064 154.086 565.24 154.145 565.404C154.204 565.569 154.291 565.718 154.4 565.843C154.509 565.969 154.639 566.069 154.782 566.137C154.924 566.205 155.077 566.24 155.232 566.24H247.2C247.354 566.24 247.507 566.205 247.65 566.137C247.793 566.069 247.922 565.969 248.031 565.843C248.141 565.718 248.227 565.569 248.286 565.404C248.345 565.24 248.376 565.064 248.376 564.886V560.356C248.376 560.178 248.345 560.002 248.286 559.838C248.227 559.673 248.141 559.524 248.031 559.398C247.922 559.273 247.793 559.173 247.65 559.105C247.507 559.037 247.354 559.002 247.2 559.002H245.232V493.862H393.379C394.568 493.862 395.745 493.593 396.844 493.069C397.942 492.545 398.94 491.778 399.78 490.81C400.621 489.843 401.288 488.694 401.743 487.43C402.198 486.166 402.432 484.811 402.432 483.442V450.435L5.39958e-10 450.435Z" fill="#3F3D56"/>
<path d="M334.84 275.392H156.506C155.382 275.392 154.303 274.878 153.508 273.963C152.713 273.048 152.267 271.807 152.267 270.513C152.267 269.219 152.713 267.978 153.508 267.063C154.303 266.148 155.382 265.634 156.506 265.634H334.84C335.964 265.634 337.043 266.148 337.837 267.063C338.632 267.978 339.079 269.219 339.079 270.513C339.079 271.807 338.632 273.048 337.837 273.963C337.043 274.878 335.964 275.392 334.84 275.392Z" fill="#E6E6E6"/>
<path d="M275.002 297.418H216.343C215.219 297.418 214.141 296.904 213.346 295.988C212.551 295.073 212.104 293.832 212.104 292.538C212.104 291.244 212.551 290.003 213.346 289.088C214.141 288.173 215.219 287.659 216.343 287.659H275.002C276.127 287.659 277.205 288.173 278 289.088C278.795 290.003 279.242 291.244 279.242 292.538C279.242 293.832 278.795 295.073 278 295.988C277.205 296.904 276.127 297.418 275.002 297.418Z" fill="#E6E6E6"/>
<path d="M275.002 342.095H216.343C215.219 342.095 214.141 341.581 213.346 340.666C212.551 339.751 212.104 338.51 212.104 337.216C212.104 335.921 212.551 334.68 213.346 333.765C214.141 332.85 215.219 332.336 216.343 332.336H275.002C276.127 332.336 277.205 332.85 278 333.765C278.795 334.68 279.242 335.921 279.242 337.216C279.242 338.51 278.795 339.751 278 340.666C277.205 341.581 276.127 342.095 275.002 342.095Z" fill="#E6E6E6"/>
<path d="M275.002 364.978H216.343C215.787 364.978 215.235 364.852 214.721 364.607C214.207 364.362 213.74 364.002 213.346 363.549C212.952 363.096 212.64 362.558 212.427 361.966C212.214 361.374 212.104 360.74 212.104 360.099C212.104 359.458 212.214 358.824 212.427 358.232C212.64 357.64 212.952 357.102 213.346 356.649C213.74 356.196 214.207 355.837 214.721 355.591C215.235 355.346 215.787 355.22 216.343 355.22H275.002C275.559 355.22 276.11 355.346 276.625 355.591C277.139 355.837 277.606 356.196 278 356.649C278.393 357.102 278.706 357.64 278.919 358.232C279.132 358.824 279.241 359.458 279.241 360.099C279.241 360.74 279.132 361.374 278.919 361.966C278.706 362.558 278.393 363.096 278 363.549C277.606 364.002 277.139 364.362 276.625 364.607C276.11 364.852 275.559 364.978 275.002 364.978Z" fill="#E6E6E6"/>
<path d="M307.9 319.443H183.445C182.321 319.443 181.243 318.929 180.448 318.014C179.653 317.099 179.206 315.858 179.206 314.564C179.206 313.27 179.653 312.029 180.448 311.114C181.243 310.198 182.321 309.684 183.445 309.684H307.9C309.025 309.684 310.103 310.198 310.898 311.114C311.693 312.029 312.139 313.27 312.139 314.564C312.139 315.858 311.693 317.099 310.898 318.014C310.103 318.929 309.025 319.443 307.9 319.443Z" fill="#E6E6E6"/>
<path d="M331.871 411.831H310.572C308.66 411.831 306.827 410.957 305.475 409.401C304.123 407.845 303.364 405.734 303.364 403.534C303.364 401.333 304.123 399.223 305.475 397.667C306.827 396.111 308.66 395.237 310.572 395.237H331.871C333.783 395.237 335.616 396.111 336.968 397.667C338.32 399.223 339.079 401.333 339.079 403.534C339.079 405.734 338.32 407.845 336.968 409.401C335.616 410.957 333.783 411.831 331.871 411.831Z" fill="#F9A826"/>
<path d="M100.428 351.611C120.904 351.611 137.503 332.505 137.503 308.936C137.503 285.367 120.904 266.261 100.428 266.261C79.9517 266.261 63.3527 285.367 63.3527 308.936C63.3527 332.505 79.9517 351.611 100.428 351.611Z" fill="#F9A826"/>
<path d="M534.281 568H0.981086C0.721403 567.999 0.472618 567.88 0.28926 567.668C0.105902 567.456 0.00292969 567.17 0.00292969 566.871C0.00292969 566.572 0.105902 566.285 0.28926 566.073C0.472618 565.862 0.721403 565.742 0.981086 565.742H534.281C534.54 565.742 534.789 565.862 534.972 566.073C535.156 566.285 535.259 566.572 535.259 566.871C535.259 567.17 535.156 567.456 534.972 567.668C534.789 567.88 534.54 567.999 534.281 568Z" fill="#CACACA"/>
<path d="M200.867 187.864C201.638 187.864 202.264 187.144 202.264 186.256C202.264 185.368 201.638 184.648 200.867 184.648C200.095 184.648 199.469 185.368 199.469 186.256C199.469 187.144 200.095 187.864 200.867 187.864Z" fill="white"/>
</g>
<defs>
<clipPath id="clip0_3_128">
<rect width="600" height="568" fill="white"/>
</clipPath>
</defs>
</svg>
