<svg width="946" height="629" viewBox="0 0 946 629" fill="none" xmlns="http://www.w3.org/2000/svg">
<g clip-path="url(#clip0_17_114)">
<path d="M128.708 502.887H840.171V8.06335H128.708V502.887Z" fill="white"/>
<path d="M846.039 510.95H122.839V0H846.039V510.95ZM134.577 494.824H834.301V16.126H134.577V494.824Z" fill="#E5E5E5"/>
<path d="M460.764 112.745V280.694H283.057L250.227 334.812L253.976 280.694H238.001V112.745H460.764Z" fill="#F9A826"/>
<path d="M568.307 122.71V230.392H682.244L703.293 265.088L700.891 230.392H711.132V122.71H568.307Z" fill="#F0F0F0"/>
<path d="M98.0815 613.117H108.361L113.252 558.646H98.0804L98.0815 613.117Z" fill="#FFB7B7"/>
<path d="M95.4597 608.507L115.704 608.506H115.705C119.126 608.506 122.407 610.373 124.827 613.697C127.246 617.021 128.605 621.529 128.606 626.23V626.806L95.4603 626.807L95.4597 608.507Z" fill="#2F2E41"/>
<path d="M221.582 612.653L231.564 609.278L226.838 554.779L212.106 559.76L221.582 612.653Z" fill="#FFB7B7"/>
<path d="M218.234 609.037L237.891 602.391L237.892 602.39C241.215 601.267 244.726 602.004 247.653 604.437C250.58 606.87 252.684 610.801 253.502 615.366L253.602 615.925L221.417 626.807L218.234 609.037Z" fill="#2F2E41"/>
<path d="M91.7603 600.129L93.8956 585.119C93.8956 585.119 97.8264 527.164 126.036 469.324L135.218 406.492C135.218 406.492 132.491 358.932 158.811 333.188L166.926 325.509L195.375 327.749L201.946 377.171L215.185 494.108C215.185 494.108 218.602 494.548 219.883 508.07C222.487 513.749 224.027 520.225 224.367 526.92C224.367 526.92 231.143 552.599 232.958 571.506L232.744 590.006L218.437 600.478L188.618 484.62L167.29 419.849C167.29 419.849 157.024 465.484 141.301 504.58C141.301 504.58 119.765 568.618 115.463 581.629L110.765 602.922L91.7603 600.129Z" fill="#2F2E41"/>
<path d="M186.882 226.062C198.113 226.062 207.217 213.554 207.217 198.125C207.217 182.696 198.113 170.189 186.882 170.189C175.652 170.189 166.548 182.696 166.548 198.125C166.548 213.554 175.652 226.062 186.882 226.062Z" fill="#FFB7B7"/>
<path d="M186.882 226.062C198.113 226.062 207.217 213.554 207.217 198.125C207.217 182.696 198.113 170.189 186.882 170.189C175.652 170.189 166.548 182.696 166.548 198.125C166.548 213.554 175.652 226.062 186.882 226.062Z" fill="#FFB8B8"/>
<path d="M158.871 333.486L165.583 310.45C160.841 289.345 161.131 266.71 166.413 245.848L167.697 244.395C178.886 231.736 188.706 234.041 197.819 249.526C199.286 252.043 201.003 254.267 202.918 256.131C206.937 260.005 213.313 281.052 204.894 293.39L198.159 347.366C198.868 377.167 183.128 365.946 158.871 333.486Z" fill="#3F3D56"/>
<path d="M255.122 302.155C254.254 301.253 253.253 300.624 252.188 300.311C251.124 299.998 250.023 300.01 248.962 300.345C247.901 300.681 246.907 301.331 246.049 302.252C245.191 303.172 244.491 304.34 243.997 305.672L227.035 303.858L223.719 317.75L247.698 319.85C249.383 320.841 251.273 320.949 253.012 320.154C254.75 319.358 256.216 317.714 257.131 315.533C258.046 313.352 258.347 310.785 257.977 308.319C257.606 305.854 256.591 303.66 255.122 302.155H255.122Z" fill="#FFB7B7"/>
<path d="M238.883 324.691L190.551 312.293L174.831 276.084C173.821 272.236 173.965 267.995 175.231 264.293C176.497 260.592 178.781 257.732 181.582 256.345C184.382 254.957 187.47 255.155 190.164 256.894C192.859 258.633 194.94 261.772 195.95 265.62L203.323 293.631L241.547 302.324L238.883 324.691Z" fill="#CCCCCC"/>
<path d="M150.636 192.007C161.41 192.007 170.144 180.007 170.144 165.205C170.144 150.403 161.41 138.403 150.636 138.403C139.861 138.403 131.127 150.403 131.127 165.205C131.127 180.007 139.861 192.007 150.636 192.007Z" fill="#2F2E41"/>
<path d="M133.808 187.399C136.333 189.906 139.259 191.546 142.34 192.181C145.421 192.817 148.568 192.43 151.517 191.052C154.467 189.674 157.134 187.345 159.294 184.261C161.454 181.177 163.046 177.428 163.935 173.325C163.598 177.002 162.711 180.542 161.328 183.723C159.945 186.904 158.098 189.657 155.901 191.808C153.705 193.958 151.209 195.46 148.569 196.218C145.929 196.976 143.203 196.973 140.564 196.211C137.925 195.449 135.429 193.943 133.235 191.789C131.041 189.635 129.195 186.879 127.815 183.696C126.435 180.512 125.551 176.971 125.217 173.294C124.884 169.617 125.109 165.885 125.879 162.334C125.442 167.105 125.947 171.95 127.343 176.36C128.738 180.77 130.971 184.583 133.808 187.399Z" fill="#2F2E41"/>
<path d="M210.798 187.428C207.392 179.052 206.089 175.553 201.698 170.459C197.815 165.954 193.038 164.631 189.186 168.9C184.628 166.194 179.557 165.581 174.725 167.15C169.894 168.72 165.56 172.389 162.367 177.612C159.174 182.835 157.292 189.334 157.002 196.143C156.712 202.952 158.028 209.709 160.755 215.408C163.482 221.108 167.475 225.447 172.14 227.781C176.805 230.115 181.893 230.32 186.65 228.364C191.406 226.408 195.576 222.397 198.541 216.926C201.506 211.455 203.107 204.816 203.107 197.995C203.103 196.797 203.051 195.601 202.95 194.411C206.298 193.765 207.449 188.074 210.798 187.428Z" fill="#2F2E41"/>
<path d="M810.523 387.94C810.587 386.091 810.945 384.284 811.572 382.646C812.199 381.008 813.08 379.579 814.152 378.459C815.225 377.339 816.463 376.556 817.78 376.165C819.097 375.774 820.46 375.784 821.773 376.195L833.959 352.602L846.201 359.279L828.652 392.265C828.003 395.251 826.58 397.806 824.651 399.446C822.723 401.087 820.424 401.698 818.189 401.165C815.954 400.632 813.94 398.991 812.527 396.554C811.114 394.116 810.401 391.051 810.523 387.94Z" fill="#A0616A"/>
<path d="M823.891 367.649L845.557 317.588L836.73 285.248L848.752 241.202L849.195 241.464C849.486 241.635 856.317 245.823 857.33 260.82L871.145 320.474L834.273 386.191L823.891 367.649Z" fill="#3F3D56"/>
<path d="M706.22 183.606C707.557 183.836 708.841 184.466 709.981 185.452C711.121 186.438 712.09 187.755 712.82 189.31C713.55 190.866 714.022 192.623 714.204 194.457C714.386 196.29 714.273 198.157 713.874 199.924L730.053 218.44L724.261 234.692L701.68 208.104C699.563 206.984 697.819 204.837 696.778 202.069C695.736 199.301 695.47 196.104 696.03 193.084C696.59 190.065 697.936 187.432 699.814 185.685C701.692 183.938 703.972 183.198 706.22 183.606Z" fill="#A0616A"/>
<path d="M719.912 203.485L754.567 237.032L778.718 227.442L809.753 247.315L809.529 247.902C809.382 248.287 805.815 257.32 794.853 257.547L750.494 271.859L705.653 216.272L719.912 203.485Z" fill="#3F3D56"/>
<path d="M783.324 611.437H771.276L765.545 547.594L783.326 547.595L783.324 611.437Z" fill="#A0616A"/>
<path d="M762.67 606.707H785.906V626.806H748.041C748.041 624.167 748.419 621.553 749.155 619.115C749.89 616.676 750.967 614.461 752.326 612.594C753.684 610.728 755.297 609.247 757.072 608.237C758.847 607.227 760.749 606.707 762.67 606.707Z" fill="#2F2E41"/>
<path d="M831.477 611.437H819.429L813.698 547.594L831.479 547.595L831.477 611.437Z" fill="#A0616A"/>
<path d="M810.823 606.707H834.058V626.806H796.194C796.194 624.167 796.572 621.553 797.307 619.115C798.043 616.676 799.12 614.461 800.479 612.594C801.837 610.728 803.45 609.247 805.225 608.237C807 607.227 808.902 606.707 810.823 606.707Z" fill="#2F2E41"/>
<path d="M835.761 378.405L834.779 472.911L833.796 597.118L812.177 594.418L801.367 422.958L787.609 594.418H765.289L763.041 421.607L770.903 383.804L835.761 378.405Z" fill="#2F2E41"/>
<path d="M768.748 384.381L765.454 384.185L780.753 268.403L774.489 233.407C774.163 231.586 774.335 229.665 774.972 228.007C775.609 226.348 776.666 225.069 777.944 224.41L789.214 218.604L793.196 203.561L824.61 208.211L825.383 219.968C828.787 221.468 856.82 234.294 854.886 248.909C852.977 263.334 841.705 308.717 841.133 311.017L839.159 376.103L838.916 376.27C838.623 376.471 816.97 391.098 793.447 391.095C784.96 391.29 776.541 389.002 768.748 384.381Z" fill="#3F3D56"/>
<path d="M807.672 196.116C820.164 196.116 830.291 182.203 830.291 165.041C830.291 147.879 820.164 133.967 807.672 133.967C795.18 133.967 785.053 147.879 785.053 165.041C785.053 182.203 795.18 196.116 807.672 196.116Z" fill="#A0616A"/>
<path d="M825.993 195.122C821.682 201.431 813.677 198.044 813.115 189.426C813.071 188.757 813.075 188.084 813.125 187.416C813.415 183.598 815.02 180.132 814.636 176.102C814.549 175.099 814.277 174.143 813.845 173.324C810.41 167.005 802.347 176.151 799.105 170.43C797.117 166.922 799.454 161.399 797.929 157.479C795.915 152.304 789.952 154.857 786.212 152.023C782.052 148.87 782.301 140.1 785.039 134.765C788.38 128.259 794.236 124.788 800.02 124.288C805.803 123.787 811.547 125.935 816.946 128.826C823.081 132.111 829.165 136.65 832.94 144.061C837.531 153.074 837.973 165.19 835.677 175.729C834.28 182.14 829.513 189.971 825.993 195.122Z" fill="#2F2E41"/>
<path d="M580.93 602.852L584.29 590.978L552.551 567.52L547.591 585.046L580.93 602.852Z" fill="#FFB8B8"/>
<path d="M598.934 571.875C597.509 571.113 595.99 570.745 594.461 570.79C592.933 570.836 591.427 571.295 590.027 572.141C588.628 572.987 587.365 574.203 586.308 575.721C585.251 577.238 584.423 579.027 583.869 580.985L581.603 588.989L578.108 601.346L577.253 604.375L588.453 610.361L599.286 572.067L598.934 571.875Z" fill="#2F2E41"/>
<path d="M578.109 580L576.648 585.324L573 598.613L572.913 598.946C563.62 600.586 553.433 597.37 544.011 592.375C540.241 590.377 536.549 588.114 532.949 585.593C527.62 581.894 522.849 577.99 519.043 574.652C513.313 569.599 509.769 565.805 509.769 565.805C509.769 565.805 508.833 566.967 507.139 568.96C504.869 571.629 501.241 575.796 496.646 580.702C494.893 582.586 493.011 584.557 490.999 586.615C476.173 601.724 457.145 561.408 457.145 561.408C457.145 561.408 462.497 556.728 463.895 555.819C468.396 552.893 478.972 545.989 488.096 539.853C492.796 536.687 497.106 533.719 500 531.61C510.246 524.115 522.983 538.297 522.983 538.297L578.109 580Z" fill="#2F2E41"/>
<path opacity="0.14" d="M578.109 580L576.648 585.324L573 598.613L572.913 598.946C563.62 600.586 553.433 597.37 544.011 592.375C540.241 590.377 536.549 588.114 532.949 585.593C527.62 581.894 522.849 577.99 519.043 574.652C513.313 569.599 509.769 565.805 509.769 565.805C509.769 565.805 508.833 566.967 507.139 568.96C504.869 571.629 501.241 575.796 496.646 580.702C494.893 582.586 493.011 584.557 490.999 586.615C476.173 601.724 457.145 561.408 457.145 561.408C457.145 561.408 462.497 556.728 463.895 555.819C468.396 552.893 478.972 545.989 488.096 539.853C492.796 536.687 497.106 533.719 500 531.61C510.246 524.115 522.983 538.297 522.983 538.297L578.109 580Z" fill="black"/>
<path d="M429.806 468.232H385.934C385.031 468.231 384.166 467.738 383.528 466.861C382.89 465.984 382.531 464.796 382.53 463.556V437.576C382.53 428.343 385.2 419.488 389.952 412.959C394.704 406.431 401.149 402.763 407.87 402.763C414.591 402.763 421.036 406.431 425.788 412.959C430.54 419.488 433.21 428.343 433.21 437.576V463.556C433.209 464.796 432.85 465.984 432.212 466.861C431.574 467.738 430.709 468.231 429.806 468.232Z" fill="#2F2E41"/>
<path d="M471.528 500.865C470.507 501.112 469.537 501.662 468.688 502.479C467.838 503.296 467.129 504.359 466.611 505.593C466.093 506.827 465.778 508.202 465.689 509.621C465.599 511.041 465.737 512.47 466.093 513.808L454.163 528.882L459.063 541.076L475.692 519.463C477.289 518.493 478.571 516.751 479.295 514.569C480.02 512.387 480.136 509.916 479.623 507.623C479.11 505.331 478.002 503.377 476.51 502.131C475.018 500.885 473.246 500.435 471.528 500.865V500.865Z" fill="#FFB8B8"/>
<path d="M435.632 569.402C435.093 569.402 434.553 569.37 434.013 569.306C430.795 568.937 427.698 567.451 425.012 564.987C422.326 562.523 420.141 559.162 418.659 555.219L399.547 504.68C398.295 501.369 398.02 497.522 398.78 493.939C399.54 490.356 401.275 487.314 403.626 485.444C405.977 483.575 408.762 483.023 411.402 483.903C414.042 484.783 416.333 487.027 417.799 490.168L435.432 544.522L459.425 517.74L473.317 525.169L449.856 560.753C448.052 563.473 445.856 565.647 443.407 567.136C440.958 568.625 438.31 569.397 435.632 569.402Z" fill="#F9A826"/>
<path d="M578.248 619.554L582.262 608.07L551.929 581.33L546.005 598.281L578.248 619.554Z" fill="#FFB8B8"/>
<path d="M597.932 590.568C596.554 589.658 595.06 589.13 593.533 589.014C592.007 588.898 590.479 589.197 589.037 589.893C587.595 590.589 586.267 591.668 585.128 593.07C583.99 594.471 583.064 596.167 582.403 598.061L579.695 605.803L575.519 617.754L574.498 620.684L585.33 627.834L598.272 590.797L597.932 590.568Z" fill="#2F2E41"/>
<path d="M576.714 596.471L574.959 601.625L570.58 614.49L570.474 614.813C561.117 615.467 551.14 611.186 542.025 605.21C538.378 602.821 534.823 600.174 531.375 597.281C526.269 593.031 521.73 588.635 518.122 584.905C512.691 579.262 509.371 575.105 509.371 575.105C509.371 575.105 508.372 576.165 506.572 577.973C504.159 580.394 500.309 584.167 495.453 588.573C493.599 590.267 491.613 592.033 489.492 593.873C473.864 607.372 451.641 623.812 432.738 627.283C399.539 633.383 407.353 572.517 407.353 572.517L433.774 553.666L444.992 556.794L457.48 560.265L461.905 561.502C461.905 561.502 462.745 561.065 464.19 560.307C468.842 557.865 479.772 552.097 489.212 546.943C494.076 544.282 498.539 541.778 501.542 539.98C512.177 533.589 524.083 549.073 524.083 549.073L576.714 596.471Z" fill="#2F2E41"/>
<path d="M359.004 628.736C360.015 628.418 360.963 627.798 361.78 626.922C362.598 626.046 363.266 624.934 363.737 623.665C364.208 622.396 364.471 621.001 364.507 619.577C364.543 618.153 364.351 616.736 363.945 615.425L375.292 599.523L369.94 587.694L354.146 610.459C352.588 611.541 351.373 613.371 350.732 615.602C350.091 617.833 350.067 620.309 350.666 622.562C351.265 624.815 352.445 626.688 353.981 627.826C355.518 628.964 357.305 629.288 359.004 628.736H359.004Z" fill="#FFB8B8"/>
<path d="M414.082 469.392C423.851 469.392 431.771 458.512 431.771 445.089C431.771 431.667 423.851 420.786 414.082 420.786C404.312 420.786 396.392 431.667 396.392 445.089C396.392 458.512 404.312 469.392 414.082 469.392Z" fill="#FFB8B8"/>
<path d="M391.068 512.552L406.477 572.571L406.385 572.781C404.242 577.649 403.541 581.576 404.359 584.136C404.575 584.787 404.891 585.366 405.285 585.833C405.679 586.3 406.142 586.645 406.643 586.842L443.109 551.824L441.832 537.79L441.903 537.633C445.428 529.885 446.569 522.868 445.295 516.779C444.142 511.851 441.651 507.724 438.34 505.254L438.213 505.116L420.025 474.704L395.712 480.638L391.068 512.552Z" fill="#F9A826"/>
<path d="M367.634 617.901L357.311 600.445L382.196 544.007L393.799 494.736L394.159 494.896L393.799 494.736C394.433 492.044 395.479 489.571 396.868 487.481C398.256 485.392 399.955 483.736 401.848 482.625C403.742 481.514 405.787 480.974 407.846 481.041C409.905 481.107 411.929 481.779 413.783 483.012C415.636 484.244 417.276 486.008 418.591 488.185C419.907 490.361 420.867 492.9 421.408 495.63C421.949 498.36 422.057 501.217 421.726 504.009C421.396 506.801 420.633 509.464 419.49 511.817L398.189 555.66L367.634 617.901Z" fill="#F9A826"/>
<path d="M439.205 440.174H412.378L412.103 434.883L410.727 440.174H406.597L406.052 429.687L403.325 440.174H395.333V439.654C395.339 432.353 397.452 425.353 401.21 420.191C404.968 415.028 410.063 412.124 415.378 412.116H419.16C424.474 412.124 429.569 415.028 433.327 420.191C437.085 425.353 439.199 432.353 439.205 439.654V440.174Z" fill="#2F2E41"/>
<path d="M412.158 473.082C411.957 473.082 411.755 473.057 411.556 473.009L391.912 468.247V423.645H413.536L413.001 424.503C405.552 436.437 411.164 455.789 415.172 466.262C415.467 467.029 415.599 467.895 415.552 468.761C415.505 469.626 415.281 470.456 414.905 471.154C414.591 471.751 414.178 472.237 413.701 472.572C413.223 472.907 412.695 473.082 412.158 473.082Z" fill="#2F2E41"/>
<path d="M705.644 393.175V456.01H503.029L473.771 504.237L477.113 456.01H462.877V393.175H705.644Z" fill="#F0F0F0"/>
<path d="M547.113 435.88C551.691 435.88 555.402 430.781 555.402 424.492C555.402 418.202 551.691 413.104 547.113 413.104C542.535 413.104 538.824 418.202 538.824 424.492C538.824 430.781 542.535 435.88 547.113 435.88Z" fill="white"/>
<path d="M519.137 435.88C523.715 435.88 527.426 430.781 527.426 424.492C527.426 418.202 523.715 413.104 519.137 413.104C514.559 413.104 510.848 418.202 510.848 424.492C510.848 430.781 514.559 435.88 519.137 435.88Z" fill="white"/>
<path d="M491.161 435.88C495.739 435.88 499.45 430.781 499.45 424.492C499.45 418.202 495.739 413.104 491.161 413.104C486.583 413.104 482.872 418.202 482.872 424.492C482.872 430.781 486.583 435.88 491.161 435.88Z" fill="white"/>
<path d="M944.964 628.052H1.03614C0.761342 628.052 0.497794 627.902 0.303479 627.635C0.109164 627.368 0 627.006 0 626.629C0 626.251 0.109164 625.889 0.303479 625.622C0.497794 625.355 0.761342 625.205 1.03614 625.205H944.964C945.239 625.205 945.502 625.355 945.697 625.622C945.891 625.889 946 626.251 946 626.629C946 627.006 945.891 627.368 945.697 627.635C945.502 627.902 945.239 628.052 944.964 628.052Z" fill="#CACACA"/>
</g>
<defs>
<clipPath id="clip0_17_114">
<rect width="946" height="629" fill="white"/>
</clipPath>
</defs>
</svg>
